<?xml version="1.0" encoding="UTF-8"?> <svg xmlns="http://www.w3.org/2000/svg" width="842.583" height="184.904" viewBox="0 0 842.583 184.904"> <g id="logo" transform="translate(0 -10.003)"> <path id="Path_31511" data-name="Path 31511" d="M354.11,105.629,335.362,79.341a25.818,25.818,0,0,0,6.7-2.828,20.6,20.6,0,0,0,5.206-4.464A20.092,20.092,0,0,0,350.686,66a22.762,22.762,0,0,0,1.239-7.788,22.828,22.828,0,0,0-1.784-9.174,18.772,18.772,0,0,0-5.109-6.944,23.351,23.351,0,0,0-8.133-4.367,35.3,35.3,0,0,0-10.764-1.536h-30.95v69.44h12.2V81.423h15.278l17.062,24.205ZM339.526,58.907a10.467,10.467,0,0,1-3.867,8.53q-3.871,3.174-10.418,3.176H307.387V47.3h17.757q6.845,0,10.614,2.926t3.768,8.681" transform="translate(7.099 0.87)" fill="#2771a7"></path> <rect id="Rectangle_12518" data-name="Rectangle 12518" width="12.203" height="69.441" transform="translate(377.428 37.058)" fill="#2771a7"></rect> <path id="Path_31512" data-name="Path 31512" d="M455.027,59.5a24.117,24.117,0,0,0-1.836-9.622,20.809,20.809,0,0,0-5.259-7.34,23.3,23.3,0,0,0-8.333-4.713,34.564,34.564,0,0,0-10.96-1.637H401.26v69.441h12.2V83.309h13.791a37.015,37.015,0,0,0,10.813-1.537,26.559,26.559,0,0,0,8.828-4.514,21.2,21.2,0,0,0,5.951-7.44A23.237,23.237,0,0,0,455.027,59.5m-12.4.3a11.328,11.328,0,0,1-4.018,9.077Q434.59,72.3,427.647,72.3H413.459v-25h14.187q6.843,0,10.912,3.124t4.067,9.374" transform="translate(9.65 0.87)" fill="#2771a7"></path> <path id="Path_31513" data-name="Path 31513" d="M498.113,47.5h22.023V36.189H463.791V47.5h22.021v58.131h12.3Z" transform="translate(11.154 0.87)" fill="#2771a7"></path> <path id="Path_31514" data-name="Path 31514" d="M600,70.837a36.347,36.347,0,0,0-2.678-13.887,34.454,34.454,0,0,0-18.85-19.1,37.142,37.142,0,0,0-14.681-2.826A36.179,36.179,0,0,0,537.6,45.689a34.874,34.874,0,0,0-7.538,11.457,37.355,37.355,0,0,0,0,27.777,34.467,34.467,0,0,0,18.848,19.1,37.136,37.136,0,0,0,14.681,2.826,36.174,36.174,0,0,0,26.189-10.664,34.9,34.9,0,0,0,7.54-11.457A36.364,36.364,0,0,0,600,70.837m-12.8.2a26.473,26.473,0,0,1-1.736,9.574,24.154,24.154,0,0,1-4.812,7.835,22.464,22.464,0,0,1-7.391,5.259A23.318,23.318,0,0,1,546.779,88.3a24.305,24.305,0,0,1-4.862-7.886,27.265,27.265,0,0,1,0-19.146,24.184,24.184,0,0,1,4.812-7.836,22.442,22.442,0,0,1,7.391-5.259,24,24,0,0,1,19,.05,23.172,23.172,0,0,1,7.49,5.356,24.366,24.366,0,0,1,4.86,7.886,26.472,26.472,0,0,1,1.737,9.574" transform="translate(12.684 0.842)" fill="#2771a7"></path> <path id="Path_31515" data-name="Path 31515" d="M671.441,55.83v49.8h12.2V36.189H670.648L649.518,69.024,628.389,36.189h-13v69.44h12v-49.6L649.12,88.566h.4Z" transform="translate(14.8 0.87)" fill="#2771a7"></path> <path id="Path_31516" data-name="Path 31516" d="M738.19,35.705H726.881L696.328,105.64h12.5l7.143-16.765h32.835l7.042,16.765h12.9Zm6.153,42.358h-23.91l11.9-27.776Z" transform="translate(16.747 0.859)" fill="#2771a7"></path> <path id="Path_31517" data-name="Path 31517" d="M802.1,47.5h22.023V36.189H767.773V47.5h22.021v58.131h12.3Z" transform="translate(18.465 0.87)" fill="#2771a7"></path> <path id="Path_31518" data-name="Path 31518" d="M235.594,123.646h-13.3v29.661h13.727a17.8,17.8,0,0,0,4.492-.529,10.463,10.463,0,0,0,3.475-1.568,7.188,7.188,0,0,0,2.224-2.564,7.592,7.592,0,0,0,.784-3.518,7.8,7.8,0,0,0-.424-2.688,5.859,5.859,0,0,0-1.208-2.013,7.657,7.657,0,0,0-1.864-1.46,14.918,14.918,0,0,0-2.4-1.083,11.305,11.305,0,0,0,1.592-1.018,6.562,6.562,0,0,0,1.354-1.376,6.757,6.757,0,0,0,.931-1.84,7.48,7.48,0,0,0,.363-2.415,6.653,6.653,0,0,0-2.628-5.553,11.321,11.321,0,0,0-7.116-2.034m-1.058,12.5h-7.116v-7.883h7.5a6.421,6.421,0,0,1,3.876,1,3.311,3.311,0,0,1,1.337,2.818,3.414,3.414,0,0,1-1.525,3.071,7.358,7.358,0,0,1-4.069,1m1.525,12.541h-8.643V140.55h8.261a8.011,8.011,0,0,1,4.6,1.061,3.415,3.415,0,0,1,1.5,2.963,3.468,3.468,0,0,1-1.525,3.071,7.357,7.357,0,0,1-4.194,1.041m41.732-25.041h-5.211v17.076q0,4.11-1.991,6.187a7.218,7.218,0,0,1-5.466,2.076,7.116,7.116,0,0,1-5.507-2.162q-1.993-2.162-1.993-6.31V123.647h-5.211v17.076a16.426,16.426,0,0,0,.89,5.654,11.026,11.026,0,0,0,2.542,4.09,10.5,10.5,0,0,0,3.983,2.477,15.505,15.505,0,0,0,5.211.825,15.874,15.874,0,0,0,5.274-.825,10.33,10.33,0,0,0,4-2.5,11.456,11.456,0,0,0,2.564-4.173,16.938,16.938,0,0,0,.908-5.8V123.646Zm21.145,17.836,11.779-17.838h-5.973l-8.39,13.135-8.3-13.135h-6.142l11.778,17.967v11.694h5.254V141.482Z" transform="translate(5.346 12.583)" fill="#2771a7"></path> <rect id="Rectangle_12519" data-name="Rectangle 12519" width="4.11" height="39.234" transform="translate(334.493 131.674)" fill="#2771a7"></rect> <path id="Path_31519" data-name="Path 31519" d="M311.052,131.7a3.154,3.154,0,0,1,1.27-2.522,5.5,5.5,0,0,1,3.559-1.036,10.909,10.909,0,0,1,4.026.782,18.105,18.105,0,0,1,4.025,2.268l2.8-3.941a17.41,17.41,0,0,0-4.9-2.775,16.964,16.964,0,0,0-5.867-.953,12.846,12.846,0,0,0-4.067.616,9.337,9.337,0,0,0-3.2,1.757,8.233,8.233,0,0,0-2.1,2.732,8.071,8.071,0,0,0-.763,3.538,8.478,8.478,0,0,0,.657,3.518,6.76,6.76,0,0,0,1.907,2.457,10.71,10.71,0,0,0,3.093,1.695,35.682,35.682,0,0,0,4.216,1.227,34.378,34.378,0,0,1,3.367.974,8.436,8.436,0,0,1,2.034,1,2.894,2.894,0,0,1,1.017,1.163,3.567,3.567,0,0,1,.276,1.441,3.214,3.214,0,0,1-1.419,2.753,6.444,6.444,0,0,1-3.835,1.018,11.994,11.994,0,0,1-5-1,18.152,18.152,0,0,1-4.364-2.859l-3.135,3.728a17.911,17.911,0,0,0,5.8,3.58,18.721,18.721,0,0,0,6.568,1.166,14.623,14.623,0,0,0,4.278-.594,9.689,9.689,0,0,0,3.347-1.736,8.024,8.024,0,0,0,2.183-2.8,8.7,8.7,0,0,0,.782-3.771,7.869,7.869,0,0,0-.615-3.239,6.865,6.865,0,0,0-1.8-2.415,10.2,10.2,0,0,0-2.987-1.76,33.752,33.752,0,0,0-4.129-1.315q-2.119-.506-3.494-.974a8.593,8.593,0,0,1-2.162-1.015,3.117,3.117,0,0,1-1.08-1.188,3.572,3.572,0,0,1-.3-1.524m44.7-7.753H333.761v29.658h22.2v-4.658h-16.99v-7.965h14.871v-4.661H338.974V128.61H355.75Zm6.4,29.658h20.8v-4.745H367.36V123.949h-5.211Zm26.226,0h20.8v-4.745H393.587V123.949h-5.212v29.658Z" transform="translate(53.438 12.514)" fill="#2771a7"></path> <rect id="Rectangle_12520" data-name="Rectangle 12520" width="4.11" height="39.234" transform="translate(481.894 131.674)" fill="#2771a7"></rect> <path id="Path_31520" data-name="Path 31520" d="M404.117,131.736a3.156,3.156,0,0,1,1.27-2.525,5.494,5.494,0,0,1,3.559-1.036,10.909,10.909,0,0,1,4.026.782A18.151,18.151,0,0,1,417,131.226l2.8-3.941a17.4,17.4,0,0,0-4.894-2.775,16.968,16.968,0,0,0-5.868-.953,12.949,12.949,0,0,0-4.066.613,9.4,9.4,0,0,0-3.2,1.76,8.254,8.254,0,0,0-2.1,2.732,8.069,8.069,0,0,0-.762,3.538,8.452,8.452,0,0,0,.657,3.518,6.737,6.737,0,0,0,1.905,2.457,10.689,10.689,0,0,0,3.093,1.695,35.693,35.693,0,0,0,4.216,1.227,34.354,34.354,0,0,1,3.367.974,8.39,8.39,0,0,1,2.032,1,2.887,2.887,0,0,1,1.018,1.163,3.566,3.566,0,0,1,.276,1.441,3.21,3.21,0,0,1-1.419,2.753,6.446,6.446,0,0,1-3.836,1.018,11.986,11.986,0,0,1-5-1,18.155,18.155,0,0,1-4.364-2.859l-3.134,3.728a17.918,17.918,0,0,0,5.8,3.58,18.706,18.706,0,0,0,6.567,1.166,14.624,14.624,0,0,0,4.278-.594,9.714,9.714,0,0,0,3.348-1.736,8.017,8.017,0,0,0,2.179-2.8,8.7,8.7,0,0,0,.782-3.771,7.868,7.868,0,0,0-.616-3.242,6.893,6.893,0,0,0-1.8-2.412,10.2,10.2,0,0,0-2.984-1.76,33.419,33.419,0,0,0-4.131-1.315q-2.119-.506-3.494-.974a8.594,8.594,0,0,1-2.162-1.015,3.135,3.135,0,0,1-1.082-1.188,3.563,3.563,0,0,1-.3-1.521m34.614-2.925h9.407v-4.829H424.07v4.829h9.407v24.829h5.252V128.81Zm43.007,9.958a15.481,15.481,0,0,0-1.145-5.933,14.707,14.707,0,0,0-8.049-8.154A16.749,16.749,0,0,0,460,124.7a15.566,15.566,0,0,0-4.913,3.329,14.922,14.922,0,0,0-3.22,4.894,15.936,15.936,0,0,0,0,11.863,14.7,14.7,0,0,0,8.052,8.154,15.854,15.854,0,0,0,6.271,1.207,15.689,15.689,0,0,0,6.271-1.224,15.531,15.531,0,0,0,4.913-3.329,14.822,14.822,0,0,0,3.22-4.894,15.5,15.5,0,0,0,1.145-5.93m-5.468.084a11.331,11.331,0,0,1-.74,4.09,10.352,10.352,0,0,1-2.057,3.347,9.616,9.616,0,0,1-3.155,2.246,10.259,10.259,0,0,1-8.114-.022,9.892,9.892,0,0,1-3.2-2.289,10.279,10.279,0,0,1-2.076-3.369,11.62,11.62,0,0,1,0-8.176,10.258,10.258,0,0,1,2.054-3.347,9.6,9.6,0,0,1,3.158-2.246,10.252,10.252,0,0,1,8.111.022,9.882,9.882,0,0,1,3.2,2.289,10.4,10.4,0,0,1,2.076,3.366,11.292,11.292,0,0,1,.741,4.09m36.947,14.787-8.007-11.226a11.088,11.088,0,0,0,2.859-1.21,8.733,8.733,0,0,0,2.224-1.905,8.63,8.63,0,0,0,1.464-2.586,10.593,10.593,0,0,0-.231-7.246,8.094,8.094,0,0,0-2.184-2.963,9.925,9.925,0,0,0-3.473-1.866,15.091,15.091,0,0,0-4.6-.656H488.052v29.658h5.209V143.3h6.527l7.286,10.338h6.142Zm-6.231-19.957a4.465,4.465,0,0,1-1.652,3.644,6.8,6.8,0,0,1-4.446,1.354H493.26v-9.955h7.582a7.241,7.241,0,0,1,4.538,1.25,4.407,4.407,0,0,1,1.606,3.706m33.686-9.7H518.683v29.658h22.2v-4.658H523.9v-7.965h14.871v-4.658H523.9v-7.715h16.776Z" transform="translate(107.776 12.482)" fill="#2771a7"></path> <path id="Path_31521" data-name="Path 31521" d="M526.325,148.893l-3.347-3.391a18.19,18.19,0,0,1-3.855,2.818,9.789,9.789,0,0,1-4.661,1.039,9.3,9.3,0,0,1-3.917-.825,9.557,9.557,0,0,1-3.115-2.268A10.288,10.288,0,0,1,505.4,142.9a11.646,11.646,0,0,1-.721-4.129,11.481,11.481,0,0,1,.721-4.112,10.079,10.079,0,0,1,2.032-3.326,9.681,9.681,0,0,1,3.115-2.246,9.272,9.272,0,0,1,3.917-.825A9.832,9.832,0,0,1,519,129.277a16.641,16.641,0,0,1,3.771,2.67l3.347-3.858a19.823,19.823,0,0,0-2.246-1.863,14.556,14.556,0,0,0-2.583-1.464,15.212,15.212,0,0,0-3.071-.953,18.7,18.7,0,0,0-3.71-.341,15.378,15.378,0,0,0-6.183,1.21,14.749,14.749,0,0,0-7.987,8.2,15.9,15.9,0,0,0-1.123,5.973,15.7,15.7,0,0,0,1.145,6.017,14.792,14.792,0,0,0,13.94,9.278,18.342,18.342,0,0,0,3.79-.36,13.809,13.809,0,0,0,3.158-1.058,15.951,15.951,0,0,0,2.691-1.655,18.657,18.657,0,0,0,2.39-2.179m30.632,4.747-8.006-11.226a11.135,11.135,0,0,0,2.859-1.21,8.732,8.732,0,0,0,2.224-1.905,8.631,8.631,0,0,0,1.464-2.586,10.57,10.57,0,0,0-.234-7.246,7.982,7.982,0,0,0-2.181-2.963,9.927,9.927,0,0,0-3.473-1.866,15.11,15.11,0,0,0-4.6-.656H531.793v29.658h5.213V143.3h6.524l7.286,10.338h6.142Zm-6.228-19.957a4.474,4.474,0,0,1-1.652,3.644,6.8,6.8,0,0,1-4.449,1.354H537v-9.955h7.582a7.237,7.237,0,0,1,4.535,1.25,4.411,4.411,0,0,1,1.609,3.706m24.618,8.136,11.778-17.838h-5.973l-8.39,13.135-8.3-13.135h-6.147l11.781,17.964V153.64h5.255V141.82Zm39.316-7.883a10.29,10.29,0,0,0-.782-4.109,8.865,8.865,0,0,0-2.246-3.136,9.933,9.933,0,0,0-3.557-2.012,14.721,14.721,0,0,0-4.68-.7H591.7V153.64h5.212v-9.535H602.8a15.789,15.789,0,0,0,4.619-.656,11.307,11.307,0,0,0,3.768-1.928,9.033,9.033,0,0,0,2.542-3.177,9.928,9.928,0,0,0,.931-4.408m-5.3.127a4.844,4.844,0,0,1-1.714,3.879,7,7,0,0,1-4.683,1.46h-6.057V128.727h6.057a7.452,7.452,0,0,1,4.661,1.334,4.732,4.732,0,0,1,1.736,4m23.18-5.252h9.4v-4.829H617.886v4.829h9.407V153.64h5.255Zm43,9.958a15.539,15.539,0,0,0-1.142-5.933,14.734,14.734,0,0,0-8.049-8.154,16.748,16.748,0,0,0-12.544.017,15.544,15.544,0,0,0-4.916,3.329,14.922,14.922,0,0,0-3.22,4.894,15.976,15.976,0,0,0,0,11.863,14.726,14.726,0,0,0,8.052,8.154A15.854,15.854,0,0,0,660,154.147a15.453,15.453,0,0,0,11.187-4.554,14.956,14.956,0,0,0,3.22-4.894,15.522,15.522,0,0,0,1.142-5.93m-5.463.084a11.268,11.268,0,0,1-.743,4.09,10.345,10.345,0,0,1-2.054,3.347,9.639,9.639,0,0,1-3.158,2.246,10.26,10.26,0,0,1-8.114-.022,9.928,9.928,0,0,1-3.2-2.289,10.385,10.385,0,0,1-2.076-3.369,11.62,11.62,0,0,1,0-8.176,10.329,10.329,0,0,1,2.054-3.347,9.628,9.628,0,0,1,3.158-2.246,10.259,10.259,0,0,1,8.114.022,9.925,9.925,0,0,1,3.2,2.289,10.386,10.386,0,0,1,2.076,3.366,11.256,11.256,0,0,1,.743,4.09" transform="translate(167.033 12.48)" fill="#2771a7"></path> <path id="Path_31522" data-name="Path 31522" d="M92.453,16.655a76.074,76.074,0,0,1,11.421.857L117.851,3.536a92.5,92.5,0,1,0,23.316,167.506L129,158.873,62.579,92.453,129,26.035l12.169-12.169a92.068,92.068,0,0,0-15.744-7.811l-13.2,13.2L88.487,42.992,39.025,92.453l73.2,73.2a75.808,75.808,0,1,1-19.766-149M147.9,40.778,117.089,71.593,96.226,92.453,147.9,144.131a75.79,75.79,0,0,0,4.632-97.891l11.857-11.858a92.445,92.445,0,0,1-4.708,121.53,93.1,93.1,0,0,1-12.5,11.057l-11.943-11.942L72.672,92.453l62.572-62.571L147.187,17.94a93.152,93.152,0,0,1,12.5,11.055Z" transform="translate(0 10)" fill="#2771a7" fill-rule="evenodd"></path> <path id="Path_31523" data-name="Path 31523" d="M253.636,66.048,282.5,36.189H267.524L234.491,71.107V36.189h-12.2v69.44h12.2V85.491L245.3,74.381l23.709,31.248h14.78Z" transform="translate(5.346 0.87)" fill="#2771a7"></path> </g> </svg> 